<?xml version="1.0" encoding="utf-8"?>
<!-- Generator: Adobe Illustrator 22.1.0, SVG Export Plug-In . SVG Version: 6.00 Build 0)  -->
<svg version="1.1" id="Слой_1" xmlns="http://www.w3.org/2000/svg" xmlns:xlink="http://www.w3.org/1999/xlink" x="0px" y="0px"
	 viewBox="0 0 359.6 539" style="enable-background:new 0 0 359.6 539;" xml:space="preserve">
<style type="text/css">
	.st0{fill:#FFFFFF;stroke:#000000;}
</style>
<g transform="translate(.5 1827.1)">
	<path class="st0" d="M28.9-1825.6h299.1c16.5,0,29.9,13.4,29.9,29.9v479.1c0,16.5-13.4,29.9-29.9,29.9H28.9
		c-16.5,0-29.9-13.4-29.9-29.9v-479.1C-1-1812.2,12.4-1825.6,28.9-1825.6z"/>
	<path d="M178.5-1596.1c-4-0.1-6.7,1.3-9.3,4c-2.7,2.7-4,5.3-4,9.3s1.5,6.4,4,9.3c2.4,2.8,4,4,5.3,6.7c1.3,2.7,2.7,8,2.7,10.7v4
		h-2.7c-2.7,0-8-2.7-9.3-4l-4-4c-2.7-2.7-5.3-4-9.3-4s-6.7,1.3-9.3,4c-2.7,2.7-4,5.3-4,9.3s1.3,6.7,4,9.3c2.7,2.7,5.3,4,9.3,4
		s6.7-1.3,9.3-4l4-4c1.3-1.3,6.7-4,9.3-4h2.7c-0.1,3.8-0.3,10.4-1.3,13.3c-1.3,4-4,8-6.7,10.7c-2.7,2.7-10.7,8-10.7,8v1.3
		c0,0,13.3-2.7,16-2.7h8c2.7,0,16,2.7,16,2.7v-1.3c0,0-8-5.3-10.7-8s-5.3-6.7-6.7-10.7c-1-3-1.3-9.6-1.3-13.3h2.7c2.7,0,8,2.7,9.3,4
		l4,4c2.7,2.7,5.3,4,9.3,4s6.7-1.3,9.3-4c2.7-2.7,4-5.3,4-9.3s-1.3-6.7-4-9.3c-2.7-2.7-5.3-4-9.3-4s-6.7,1.3-9.3,4l-4,4
		c-1.3,1.3-6.7,4-9.3,4h-2.7v-4c0-2.7,1.3-8,2.7-10.7c1.3-2.7,2.7-4,5.3-6.7c2.7-2.7,4-5.3,4-9.3s-1.3-6.7-4-9.3
		C185.2-1594.8,182.5-1596.1,178.5-1596.1"/>
	<path d="M28.5-1736.1c-1.5,0-2.5,0.5-3.5,1.5s-1.5,2-1.5,3.5s0.6,2.4,1.5,3.5c0.9,1.1,1.5,1.5,2,2.5s1,3,1,4v1.5h-1
		c-1,0-3-1-3.5-1.5l-1.5-1.5c-1-1-2-1.5-3.5-1.5s-2.5,0.5-3.5,1.5s-1.5,2-1.5,3.5s0.5,2.5,1.5,3.5s2,1.5,3.5,1.5s2.5-0.5,3.5-1.5
		l1.5-1.5c0.5-0.5,2.5-1.5,3.5-1.5h1c0,1.4-0.1,3.9-0.5,5c-0.5,1.5-1.5,3-2.5,4s-4,3-4,3v0.5c0,0,5-1,6-1h3c1,0,6,1,6,1v-0.5
		c0,0-3-2-4-3s-2-2.5-2.5-4c-0.4-1.1-0.5-3.6-0.5-5h1c1,0,3,1,3.5,1.5l1.5,1.5c1,1,2,1.5,3.5,1.5s2.5-0.5,3.5-1.5s1.5-2,1.5-3.5
		s-0.5-2.5-1.5-3.5s-2-1.5-3.5-1.5s-2.5,0.5-3.5,1.5l-1.5,1.5c-0.5,0.5-2.5,1.5-3.5,1.5h-1v-1.5c0-1,0.5-3,1-4s1-1.5,2-2.5
		c1-1,1.5-2,1.5-3.5s-0.5-2.5-1.5-3.5S30-1736.1,28.5-1736.1"/>
	<path d="M328.5-1376.1c1.5,0,2.5-0.5,3.5-1.5s1.5-2,1.5-3.5s-0.6-2.4-1.5-3.5c-0.9-1.1-1.5-1.5-2-2.5s-1-3-1-4v-1.5h1
		c1,0,3,1,3.5,1.5l1.5,1.5c1,1,2,1.5,3.5,1.5s2.5-0.5,3.5-1.5s1.5-2,1.5-3.5s-0.5-2.5-1.5-3.5s-2-1.5-3.5-1.5s-2.5,0.5-3.5,1.5
		l-1.5,1.5c-0.5,0.5-2.5,1.5-3.5,1.5h-1c0-1.4,0.1-3.9,0.5-5c0.5-1.5,1.5-3,2.5-4s4-3,4-3v-0.5c0,0-5,1-6,1h-3c-1,0-6-1-6-1v0.5
		c0,0,3,2,4,3s2,2.5,2.5,4c0.4,1.1,0.5,3.6,0.5,5h-1c-1,0-3-1-3.5-1.5l-1.5-1.5c-1-1-2-1.5-3.5-1.5s-2.5,0.5-3.5,1.5s-1.5,2-1.5,3.5
		s0.5,2.5,1.5,3.5s2,1.5,3.5,1.5s2.5-0.5,3.5-1.5l1.5-1.5c0.5-0.5,2.5-1.5,3.5-1.5h1v1.5c0,1-0.5,3-1,4s-1,1.5-2,2.5
		c-1,1-1.5,2-1.5,3.5s0.5,2.5,1.5,3.5S327-1376.1,328.5-1376.1"/>
	<path d="M18.5-1796.1v5h7.6v45h5v-45h7.4v-5H26.1H18.5z"/>
	<path d="M318.5-1316.1v-5h7.6v-45h5v45h7.4v5h-12.4H318.5z"/>
</g>
</svg>
