<?xml version="1.0" encoding="utf-8"?>
<!-- Generator: Adobe Illustrator 22.1.0, SVG Export Plug-In . SVG Version: 6.00 Build 0)  -->
<svg version="1.1" id="Слой_1" xmlns="http://www.w3.org/2000/svg" xmlns:xlink="http://www.w3.org/1999/xlink" x="0px" y="0px"
	 viewBox="0 0 359.6 539" style="enable-background:new 0 0 359.6 539;" xml:space="preserve">
<style type="text/css">
	.st0{display:none;}
	.st1{display:inline;fill:#FFFFFF;stroke:#000000;}
	.st2{display:inline;}
	.st3{fill:#FFFFFF;stroke:#000000;}
</style>
<g transform="translate(.5 1827.1)" class="st0">
	<path class="st1" d="M28.9-1825.6h299.1c16.5,0,29.9,13.4,29.9,29.9v479.1c0,16.5-13.4,29.9-29.9,29.9H28.9
		c-16.5,0-29.9-13.4-29.9-29.9v-479.1C-1-1812.2,12.4-1825.6,28.9-1825.6z"/>
	<path class="st2" d="M178.5-1596.1c-4-0.1-6.7,1.3-9.3,4c-2.7,2.7-4,5.3-4,9.3s1.5,6.4,4,9.3c2.4,2.8,4,4,5.3,6.7
		c1.3,2.7,2.7,8,2.7,10.7v4h-2.7c-2.7,0-8-2.7-9.3-4l-4-4c-2.7-2.7-5.3-4-9.3-4s-6.7,1.3-9.3,4c-2.7,2.7-4,5.3-4,9.3s1.3,6.7,4,9.3
		c2.7,2.7,5.3,4,9.3,4s6.7-1.3,9.3-4l4-4c1.3-1.3,6.7-4,9.3-4h2.7c-0.1,3.8-0.3,10.4-1.3,13.3c-1.3,4-4,8-6.7,10.7
		c-2.7,2.7-10.7,8-10.7,8v1.3c0,0,13.3-2.7,16-2.7h8c2.7,0,16,2.7,16,2.7v-1.3c0,0-8-5.3-10.7-8s-5.3-6.7-6.7-10.7
		c-1-3-1.3-9.6-1.3-13.3h2.7c2.7,0,8,2.7,9.3,4l4,4c2.7,2.7,5.3,4,9.3,4s6.7-1.3,9.3-4c2.7-2.7,4-5.3,4-9.3s-1.3-6.7-4-9.3
		c-2.7-2.7-5.3-4-9.3-4s-6.7,1.3-9.3,4l-4,4c-1.3,1.3-6.7,4-9.3,4h-2.7v-4c0-2.7,1.3-8,2.7-10.7c1.3-2.7,2.7-4,5.3-6.7
		c2.7-2.7,4-5.3,4-9.3s-1.3-6.7-4-9.3C185.2-1594.8,182.5-1596.1,178.5-1596.1"/>
	<path class="st2" d="M28.5-1736.1c-1.5,0-2.5,0.5-3.5,1.5s-1.5,2-1.5,3.5s0.6,2.4,1.5,3.5c0.9,1.1,1.5,1.5,2,2.5s1,3,1,4v1.5h-1
		c-1,0-3-1-3.5-1.5l-1.5-1.5c-1-1-2-1.5-3.5-1.5s-2.5,0.5-3.5,1.5s-1.5,2-1.5,3.5s0.5,2.5,1.5,3.5s2,1.5,3.5,1.5s2.5-0.5,3.5-1.5
		l1.5-1.5c0.5-0.5,2.5-1.5,3.5-1.5h1c0,1.4-0.1,3.9-0.5,5c-0.5,1.5-1.5,3-2.5,4s-4,3-4,3v0.5c0,0,5-1,6-1h3c1,0,6,1,6,1v-0.5
		c0,0-3-2-4-3s-2-2.5-2.5-4c-0.4-1.1-0.5-3.6-0.5-5h1c1,0,3,1,3.5,1.5l1.5,1.5c1,1,2,1.5,3.5,1.5s2.5-0.5,3.5-1.5s1.5-2,1.5-3.5
		s-0.5-2.5-1.5-3.5s-2-1.5-3.5-1.5s-2.5,0.5-3.5,1.5l-1.5,1.5c-0.5,0.5-2.5,1.5-3.5,1.5h-1v-1.5c0-1,0.5-3,1-4s1-1.5,2-2.5
		c1-1,1.5-2,1.5-3.5s-0.5-2.5-1.5-3.5S30-1736.1,28.5-1736.1"/>
	<path class="st2" d="M328.5-1376.1c1.5,0,2.5-0.5,3.5-1.5s1.5-2,1.5-3.5s-0.6-2.4-1.5-3.5c-0.9-1.1-1.5-1.5-2-2.5s-1-3-1-4v-1.5h1
		c1,0,3,1,3.5,1.5l1.5,1.5c1,1,2,1.5,3.5,1.5s2.5-0.5,3.5-1.5s1.5-2,1.5-3.5s-0.5-2.5-1.5-3.5s-2-1.5-3.5-1.5s-2.5,0.5-3.5,1.5
		l-1.5,1.5c-0.5,0.5-2.5,1.5-3.5,1.5h-1c0-1.4,0.1-3.9,0.5-5c0.5-1.5,1.5-3,2.5-4s4-3,4-3v-0.5c0,0-5,1-6,1h-3c-1,0-6-1-6-1v0.5
		c0,0,3,2,4,3s2,2.5,2.5,4c0.4,1.1,0.5,3.6,0.5,5h-1c-1,0-3-1-3.5-1.5l-1.5-1.5c-1-1-2-1.5-3.5-1.5s-2.5,0.5-3.5,1.5s-1.5,2-1.5,3.5
		s0.5,2.5,1.5,3.5s2,1.5,3.5,1.5s2.5-0.5,3.5-1.5l1.5-1.5c0.5-0.5,2.5-1.5,3.5-1.5h1v1.5c0,1-0.5,3-1,4s-1,1.5-2,2.5
		c-1,1-1.5,2-1.5,3.5s0.5,2.5,1.5,3.5S327-1376.1,328.5-1376.1"/>
	<path class="st2" d="M18.5-1796.1v5h7.6v45h5v-45h7.4v-5H26.1H18.5z"/>
	<path class="st2" d="M318.5-1316.1v-5h7.6v-45h5v45h7.4v5h-12.4H318.5z"/>
</g>
<g transform="translate(420,657.64)">
	<path class="st3" d="M-390.6-656.1h299.1c16.5,0,29.9,13.4,29.9,29.9v479.1c0,16.5-13.4,29.9-29.9,29.9h-299.1
		c-16.5,0-29.9-13.4-29.9-29.9v-479.1C-420.5-642.7-407.1-656.1-390.6-656.1z"/>
	<path d="M-241-606.6c-4-0.1-6.7,1.3-9.3,4c-2.7,2.7-4,5.3-4,9.3s1.5,6.4,4,9.3c2.4,2.8,4,4,5.3,6.7c1.3,2.7,2.7,8,2.7,10.7v4h-2.7
		c-2.7,0-8-2.7-9.3-4l-4-4c-2.7-2.7-5.3-4-9.3-4s-6.7,1.3-9.3,4c-2.7,2.7-4,5.3-4,9.3s1.3,6.7,4,9.3s5.3,4,9.3,4s6.7-1.3,9.3-4l4-4
		c1.3-1.3,6.7-4,9.3-4h2.7c-0.1,3.8-0.3,10.4-1.3,13.3c-1.3,4-4,8-6.7,10.7c-2.7,2.7-10.7,8-10.7,8v1.3c0,0,13.3-2.7,16-2.7h8
		c2.7,0,16,2.7,16,2.7v-1.3c0,0-8-5.3-10.7-8s-5.3-6.7-6.7-10.7c-1-3-1.3-9.6-1.3-13.3h2.7c2.7,0,8,2.7,9.3,4l4,4
		c2.7,2.7,5.3,4,9.3,4s6.7-1.3,9.3-4c2.7-2.7,4-5.3,4-9.3s-1.3-6.7-4-9.3s-5.3-4-9.3-4s-6.7,1.3-9.3,4l-4,4c-1.3,1.3-6.7,4-9.3,4
		h-2.7v-4c0-2.7,1.3-8,2.7-10.7c1.3-2.7,2.7-4,5.3-6.7c2.7-2.7,4-5.3,4-9.3s-1.3-6.7-4-9.3S-237-606.6-241-606.6"/>
	<path d="M-241-166.6c4,0.1,6.7-1.3,9.3-4c2.7-2.7,4-5.3,4-9.3s-1.5-6.4-4-9.3c-2.4-2.8-4-4-5.3-6.7c-1.3-2.7-2.7-8-2.7-10.7v-4h2.7
		c2.7,0,8,2.7,9.3,4l4,4c2.7,2.7,5.3,4,9.3,4s6.7-1.3,9.3-4c2.7-2.7,4-5.3,4-9.3s-1.3-6.7-4-9.3s-5.3-4-9.3-4s-6.7,1.3-9.3,4l-4,4
		c-1.3,1.3-6.7,4-9.3,4h-2.7c0.1-3.8,0.3-10.4,1.3-13.3c1.3-4,4-8,6.7-10.7c2.7-2.7,10.7-8,10.7-8v-1.3c0,0-13.3,2.7-16,2.7h-8
		c-2.7,0-16-2.7-16-2.7v1.3c0,0,8,5.3,10.7,8s5.3,6.7,6.7,10.7c1,3,1.3,9.6,1.3,13.3h-2.7c-2.7,0-8-2.7-9.3-4l-4-4
		c-2.7-2.7-5.3-4-9.3-4s-6.7,1.3-9.3,4c-2.7,2.7-4,5.3-4,9.3s1.3,6.7,4,9.3s5.3,4,9.3,4s6.7-1.3,9.3-4l4-4c1.3-1.3,6.7-4,9.3-4h2.7
		v4c0,2.7-1.3,8-2.7,10.7c-1.3,2.7-2.7,4-5.3,6.7c-2.7,2.7-4,5.3-4,9.3s1.3,6.7,4,9.3S-245-166.6-241-166.6"/>
	<path d="M-391-566.6c-1.5,0-2.5,0.5-3.5,1.5s-1.5,2-1.5,3.5s0.6,2.4,1.5,3.5c0.9,1.1,1.5,1.5,2,2.5s1,3,1,4v1.5h-1
		c-1,0-3-1-3.5-1.5l-1.5-1.5c-1-1-2-1.5-3.5-1.5s-2.5,0.5-3.5,1.5s-1.5,2-1.5,3.5s0.5,2.5,1.5,3.5s2,1.5,3.5,1.5s2.5-0.5,3.5-1.5
		l1.5-1.5c0.5-0.5,2.5-1.5,3.5-1.5h1c0,1.4-0.1,3.9-0.5,5c-0.5,1.5-1.5,3-2.5,4s-4,3-4,3v0.5c0,0,5-1,6-1h3c1,0,6,1,6,1v-0.5
		c0,0-3-2-4-3s-2-2.5-2.5-4c-0.4-1.1-0.5-3.6-0.5-5h1c1,0,3,1,3.5,1.5l1.5,1.5c1,1,2,1.5,3.5,1.5s2.5-0.5,3.5-1.5s1.5-2,1.5-3.5
		s-0.5-2.5-1.5-3.5s-2-1.5-3.5-1.5s-2.5,0.5-3.5,1.5l-1.5,1.5c-0.5,0.5-2.5,1.5-3.5,1.5h-1v-1.5c0-1,0.5-3,1-4s1-1.5,2-2.5
		c1-1,1.5-2,1.5-3.5s-0.5-2.5-1.5-3.5S-389.5-566.6-391-566.6"/>
	<path d="M-91-206.6c1.5,0,2.5-0.5,3.5-1.5s1.5-2,1.5-3.5s-0.6-2.4-1.5-3.5c-0.9-1.1-1.5-1.5-2-2.5s-1-3-1-4v-1.5h1c1,0,3,1,3.5,1.5
		l1.5,1.5c1,1,2,1.5,3.5,1.5s2.5-0.5,3.5-1.5s1.5-2,1.5-3.5s-0.5-2.5-1.5-3.5s-2-1.5-3.5-1.5s-2.5,0.5-3.5,1.5l-1.5,1.5
		c-0.5,0.5-2.5,1.5-3.5,1.5h-1c0-1.4,0.1-3.9,0.5-5c0.5-1.5,1.5-3,2.5-4s4-3,4-3v-0.5c0,0-5,1-6,1h-3c-1,0-6-1-6-1v0.5c0,0,3,2,4,3
		s2,2.5,2.5,4c0.4,1.1,0.5,3.6,0.5,5h-1c-1,0-3-1-3.5-1.5l-1.5-1.5c-1-1-2-1.5-3.5-1.5s-2.5,0.5-3.5,1.5s-1.5,2-1.5,3.5
		s0.5,2.5,1.5,3.5s2,1.5,3.5,1.5s2.5-0.5,3.5-1.5l1.5-1.5c0.5-0.5,2.5-1.5,3.5-1.5h1v1.5c0,1-0.5,3-1,4s-1,1.5-2,2.5
		c-1,1-1.5,2-1.5,3.5s0.5,2.5,1.5,3.5S-92.5-206.6-91-206.6"/>
	<path d="M-391-626.6c-5.5,0-10,4.5-10,10v5h5v-5c0-2.8,2.2-5,5-5s5,2.2,5,5v5c0,1.1-0.4,3.1-1,3.9c-4.5,9.1-9.3,17.1-14,26.1v5h20
		v-10h-5v5h-9.5c4.5-7.9,8.2-15.6,12.5-23.6c1.3-1.7,2-4.1,2-6.4v-5C-381-622.2-385.5-626.6-391-626.6"/>
	<path d="M-91-146.6c5.5,0,10-4.5,10-10v-5h-5v5c0,2.8-2.2,5-5,5s-5-2.2-5-5v-5c0-1.1,0.4-3.1,1-3.9c4.5-9.1,9.3-17.1,14-26.1v-5
		h-20v10h5v-5h9.5C-91-183.7-94.7-176-99-168c-1.3,1.7-2,4.1-2,6.4v5C-101-151.1-96.5-146.6-91-146.6"/>
</g>
</svg>
