<?xml version="1.0" encoding="utf-8"?>
<!-- Generator: Adobe Illustrator 22.1.0, SVG Export Plug-In . SVG Version: 6.00 Build 0)  -->
<svg version="1.1" id="Слой_1" xmlns="http://www.w3.org/2000/svg" xmlns:xlink="http://www.w3.org/1999/xlink" x="0px" y="0px"
	 viewBox="0 0 359.6 539" style="enable-background:new 0 0 359.6 539;" xml:space="preserve">
<style type="text/css">
	.st0{display:none;}
	.st1{display:inline;fill:#FFFFFF;stroke:#000000;}
	.st2{display:inline;}
	.st3{fill:#FFFFFF;stroke:#000000;}
</style>
<g transform="translate(.5 1827.1)" class="st0">
	<path class="st1" d="M28.9-1825.6h299.1c16.5,0,29.9,13.4,29.9,29.9v479.1c0,16.5-13.4,29.9-29.9,29.9H28.9
		c-16.5,0-29.9-13.4-29.9-29.9v-479.1C-1-1812.2,12.4-1825.6,28.9-1825.6z"/>
	<path class="st2" d="M178.5-1596.1c-4-0.1-6.7,1.3-9.3,4c-2.7,2.7-4,5.3-4,9.3s1.5,6.4,4,9.3c2.4,2.8,4,4,5.3,6.7
		c1.3,2.7,2.7,8,2.7,10.7v4h-2.7c-2.7,0-8-2.7-9.3-4l-4-4c-2.7-2.7-5.3-4-9.3-4s-6.7,1.3-9.3,4c-2.7,2.7-4,5.3-4,9.3s1.3,6.7,4,9.3
		c2.7,2.7,5.3,4,9.3,4s6.7-1.3,9.3-4l4-4c1.3-1.3,6.7-4,9.3-4h2.7c-0.1,3.8-0.3,10.4-1.3,13.3c-1.3,4-4,8-6.7,10.7
		c-2.7,2.7-10.7,8-10.7,8v1.3c0,0,13.3-2.7,16-2.7h8c2.7,0,16,2.7,16,2.7v-1.3c0,0-8-5.3-10.7-8s-5.3-6.7-6.7-10.7
		c-1-3-1.3-9.6-1.3-13.3h2.7c2.7,0,8,2.7,9.3,4l4,4c2.7,2.7,5.3,4,9.3,4s6.7-1.3,9.3-4c2.7-2.7,4-5.3,4-9.3s-1.3-6.7-4-9.3
		c-2.7-2.7-5.3-4-9.3-4s-6.7,1.3-9.3,4l-4,4c-1.3,1.3-6.7,4-9.3,4h-2.7v-4c0-2.7,1.3-8,2.7-10.7c1.3-2.7,2.7-4,5.3-6.7
		c2.7-2.7,4-5.3,4-9.3s-1.3-6.7-4-9.3C185.2-1594.8,182.5-1596.1,178.5-1596.1"/>
	<path class="st2" d="M28.5-1736.1c-1.5,0-2.5,0.5-3.5,1.5s-1.5,2-1.5,3.5s0.6,2.4,1.5,3.5c0.9,1.1,1.5,1.5,2,2.5s1,3,1,4v1.5h-1
		c-1,0-3-1-3.5-1.5l-1.5-1.5c-1-1-2-1.5-3.5-1.5s-2.5,0.5-3.5,1.5s-1.5,2-1.5,3.5s0.5,2.5,1.5,3.5s2,1.5,3.5,1.5s2.5-0.5,3.5-1.5
		l1.5-1.5c0.5-0.5,2.5-1.5,3.5-1.5h1c0,1.4-0.1,3.9-0.5,5c-0.5,1.5-1.5,3-2.5,4s-4,3-4,3v0.5c0,0,5-1,6-1h3c1,0,6,1,6,1v-0.5
		c0,0-3-2-4-3s-2-2.5-2.5-4c-0.4-1.1-0.5-3.6-0.5-5h1c1,0,3,1,3.5,1.5l1.5,1.5c1,1,2,1.5,3.5,1.5s2.5-0.5,3.5-1.5s1.5-2,1.5-3.5
		s-0.5-2.5-1.5-3.5s-2-1.5-3.5-1.5s-2.5,0.5-3.5,1.5l-1.5,1.5c-0.5,0.5-2.5,1.5-3.5,1.5h-1v-1.5c0-1,0.5-3,1-4s1-1.5,2-2.5
		c1-1,1.5-2,1.5-3.5s-0.5-2.5-1.5-3.5S30-1736.1,28.5-1736.1"/>
	<path class="st2" d="M328.5-1376.1c1.5,0,2.5-0.5,3.5-1.5s1.5-2,1.5-3.5s-0.6-2.4-1.5-3.5c-0.9-1.1-1.5-1.5-2-2.5s-1-3-1-4v-1.5h1
		c1,0,3,1,3.5,1.5l1.5,1.5c1,1,2,1.5,3.5,1.5s2.5-0.5,3.5-1.5s1.5-2,1.5-3.5s-0.5-2.5-1.5-3.5s-2-1.5-3.5-1.5s-2.5,0.5-3.5,1.5
		l-1.5,1.5c-0.5,0.5-2.5,1.5-3.5,1.5h-1c0-1.4,0.1-3.9,0.5-5c0.5-1.5,1.5-3,2.5-4s4-3,4-3v-0.5c0,0-5,1-6,1h-3c-1,0-6-1-6-1v0.5
		c0,0,3,2,4,3s2,2.5,2.5,4c0.4,1.1,0.5,3.6,0.5,5h-1c-1,0-3-1-3.5-1.5l-1.5-1.5c-1-1-2-1.5-3.5-1.5s-2.5,0.5-3.5,1.5s-1.5,2-1.5,3.5
		s0.5,2.5,1.5,3.5s2,1.5,3.5,1.5s2.5-0.5,3.5-1.5l1.5-1.5c0.5-0.5,2.5-1.5,3.5-1.5h1v1.5c0,1-0.5,3-1,4s-1,1.5-2,2.5
		c-1,1-1.5,2-1.5,3.5s0.5,2.5,1.5,3.5S327-1376.1,328.5-1376.1"/>
	<path class="st2" d="M18.5-1796.1v5h7.6v45h5v-45h7.4v-5H26.1H18.5z"/>
	<path class="st2" d="M318.5-1316.1v-5h7.6v-45h5v45h7.4v5h-12.4H318.5z"/>
</g>
<g transform="translate(420,657.64)">
	<path class="st3" d="M-390.6-656.1h299.1c16.5,0,29.9,13.4,29.9,29.9v479.1c0,16.5-13.4,29.9-29.9,29.9h-299.1
		c-16.5,0-29.9-13.4-29.9-29.9v-479.1C-420.5-642.7-407.1-656.1-390.6-656.1z"/>
	<path d="M-241-606.6c-4-0.1-6.7,1.3-9.3,4c-2.7,2.7-4,5.3-4,9.3s1.5,6.4,4,9.3c2.4,2.8,4,4,5.3,6.7c1.3,2.7,2.7,8,2.7,10.7v4h-2.7
		c-2.7,0-8-2.7-9.3-4l-4-4c-2.7-2.7-5.3-4-9.3-4s-6.7,1.3-9.3,4c-2.7,2.7-4,5.3-4,9.3s1.3,6.7,4,9.3s5.3,4,9.3,4s6.7-1.3,9.3-4l4-4
		c1.3-1.3,6.7-4,9.3-4h2.7c-0.1,3.8-0.3,10.4-1.3,13.3c-1.3,4-4,8-6.7,10.7c-2.7,2.7-10.7,8-10.7,8v1.3c0,0,13.3-2.7,16-2.7h8
		c2.7,0,16,2.7,16,2.7v-1.3c0,0-8-5.3-10.7-8s-5.3-6.7-6.7-10.7c-1-3-1.3-9.6-1.3-13.3h2.7c2.7,0,8,2.7,9.3,4l4,4
		c2.7,2.7,5.3,4,9.3,4s6.7-1.3,9.3-4c2.7-2.7,4-5.3,4-9.3s-1.3-6.7-4-9.3s-5.3-4-9.3-4s-6.7,1.3-9.3,4l-4,4c-1.3,1.3-6.7,4-9.3,4
		h-2.7v-4c0-2.7,1.3-8,2.7-10.7c1.3-2.7,2.7-4,5.3-6.7c2.7-2.7,4-5.3,4-9.3s-1.3-6.7-4-9.3S-237-606.6-241-606.6"/>
	<path d="M-241-166.6c4,0.1,6.7-1.3,9.3-4c2.7-2.7,4-5.3,4-9.3s-1.5-6.4-4-9.3c-2.4-2.8-4-4-5.3-6.7c-1.3-2.7-2.7-8-2.7-10.7v-4h2.7
		c2.7,0,8,2.7,9.3,4l4,4c2.7,2.7,5.3,4,9.3,4s6.7-1.3,9.3-4c2.7-2.7,4-5.3,4-9.3s-1.3-6.7-4-9.3s-5.3-4-9.3-4s-6.7,1.3-9.3,4l-4,4
		c-1.3,1.3-6.7,4-9.3,4h-2.7c0.1-3.8,0.3-10.4,1.3-13.3c1.3-4,4-8,6.7-10.7c2.7-2.7,10.7-8,10.7-8v-1.3c0,0-13.3,2.7-16,2.7h-8
		c-2.7,0-16-2.7-16-2.7v1.3c0,0,8,5.3,10.7,8s5.3,6.7,6.7,10.7c1,3,1.3,9.6,1.3,13.3h-2.7c-2.7,0-8-2.7-9.3-4l-4-4
		c-2.7-2.7-5.3-4-9.3-4s-6.7,1.3-9.3,4c-2.7,2.7-4,5.3-4,9.3s1.3,6.7,4,9.3s5.3,4,9.3,4s6.7-1.3,9.3-4l4-4c1.3-1.3,6.7-4,9.3-4h2.7
		v4c0,2.7-1.3,8-2.7,10.7c-1.3,2.7-2.7,4-5.3,6.7c-2.7,2.7-4,5.3-4,9.3s1.3,6.7,4,9.3S-245-166.6-241-166.6"/>
	<path d="M-391-566.6c-1.5,0-2.5,0.5-3.5,1.5s-1.5,2-1.5,3.5s0.6,2.4,1.5,3.5c0.9,1.1,1.5,1.5,2,2.5s1,3,1,4v1.5h-1
		c-1,0-3-1-3.5-1.5l-1.5-1.5c-1-1-2-1.5-3.5-1.5s-2.5,0.5-3.5,1.5s-1.5,2-1.5,3.5s0.5,2.5,1.5,3.5s2,1.5,3.5,1.5s2.5-0.5,3.5-1.5
		l1.5-1.5c0.5-0.5,2.5-1.5,3.5-1.5h1c0,1.4-0.1,3.9-0.5,5c-0.5,1.5-1.5,3-2.5,4s-4,3-4,3v0.5c0,0,5-1,6-1h3c1,0,6,1,6,1v-0.5
		c0,0-3-2-4-3s-2-2.5-2.5-4c-0.4-1.1-0.5-3.6-0.5-5h1c1,0,3,1,3.5,1.5l1.5,1.5c1,1,2,1.5,3.5,1.5s2.5-0.5,3.5-1.5s1.5-2,1.5-3.5
		s-0.5-2.5-1.5-3.5s-2-1.5-3.5-1.5s-2.5,0.5-3.5,1.5l-1.5,1.5c-0.5,0.5-2.5,1.5-3.5,1.5h-1v-1.5c0-1,0.5-3,1-4s1-1.5,2-2.5
		c1-1,1.5-2,1.5-3.5s-0.5-2.5-1.5-3.5S-389.5-566.6-391-566.6"/>
	<path d="M-91-206.6c1.5,0,2.5-0.5,3.5-1.5s1.5-2,1.5-3.5s-0.6-2.4-1.5-3.5c-0.9-1.1-1.5-1.5-2-2.5s-1-3-1-4v-1.5h1c1,0,3,1,3.5,1.5
		l1.5,1.5c1,1,2,1.5,3.5,1.5s2.5-0.5,3.5-1.5s1.5-2,1.5-3.5s-0.5-2.5-1.5-3.5s-2-1.5-3.5-1.5s-2.5,0.5-3.5,1.5l-1.5,1.5
		c-0.5,0.5-2.5,1.5-3.5,1.5h-1c0-1.4,0.1-3.9,0.5-5c0.5-1.5,1.5-3,2.5-4s4-3,4-3v-0.5c0,0-5,1-6,1h-3c-1,0-6-1-6-1v0.5c0,0,3,2,4,3
		s2,2.5,2.5,4c0.4,1.1,0.5,3.6,0.5,5h-1c-1,0-3-1-3.5-1.5l-1.5-1.5c-1-1-2-1.5-3.5-1.5s-2.5,0.5-3.5,1.5s-1.5,2-1.5,3.5
		s0.5,2.5,1.5,3.5s2,1.5,3.5,1.5s2.5-0.5,3.5-1.5l1.5-1.5c0.5-0.5,2.5-1.5,3.5-1.5h1v1.5c0,1-0.5,3-1,4s-1,1.5-2,2.5
		c-1,1-1.5,2-1.5,3.5s0.5,2.5,1.5,3.5S-92.5-206.6-91-206.6"/>
	<path d="M-391-626.6c-5.5,0-10,4.5-10,10v5h5v-5c0-2.8,2.2-5,5-5s5,2.2,5,5v5c0,1.1-0.4,3.1-1,3.9c-4.5,9.1-9.3,17.1-14,26.1v5h20
		v-10h-5v5h-9.5c4.5-7.9,8.2-15.6,12.5-23.6c1.3-1.7,2-4.1,2-6.4v-5C-381-622.2-385.5-626.6-391-626.6"/>
	<path d="M-91-146.6c5.5,0,10-4.5,10-10v-5h-5v5c0,2.8-2.2,5-5,5s-5-2.2-5-5v-5c0-1.1,0.4-3.1,1-3.9c4.5-9.1,9.3-17.1,14-26.1v-5
		h-20v10h5v-5h9.5C-91-183.7-94.7-176-99-168c-1.3,1.7-2,4.1-2,6.4v5C-101-151.1-96.5-146.6-91-146.6"/>
</g>
<g transform="translate(810 1227.6)">
	<path class="st3" d="M-780.6-1226.1h299.1c16.5,0,29.9,13.4,29.9,29.9v479.1c0,16.5-13.4,29.9-29.9,29.9h-299.1
		c-16.5,0-29.9-13.4-29.9-29.9v-479.1C-810.5-1212.7-797.1-1226.1-780.6-1226.1z"/>
	<path d="M-781-1196.6c-5.5,0-10,4.5-10,10v5h5v-5c0-2.8,2.2-5,5-5s5,2.2,5,5v5c0,2.8-2.2,5-5,5h-5v5h5c2.8,0,5,2.2,5,5v10
		c0,2.8-2.2,5-5,5s-5-2.2-5-5v-5h-5v5c0,5.5,4.5,10,10,10s10-4.5,10-10v-10c0-3-1.3-5.7-3.4-7.5c2.1-1.8,3.4-4.5,3.4-7.5v-5
		C-771-1192.2-775.5-1196.6-781-1196.6"/>
	<path d="M-481-716.6c5.5,0,10-4.5,10-10v-5h-5v5c0,2.8-2.2,5-5,5s-5-2.2-5-5v-5c0-2.8,2.2-5,5-5h5v-5h-5c-2.8,0-5-2.2-5-5v-10
		c0-2.8,2.2-5,5-5s5,2.2,5,5v5h5v-5c0-5.5-4.5-10-10-10s-10,4.5-10,10v10c0,3,1.3,5.7,3.4,7.5c-2.1,1.8-3.4,4.5-3.4,7.5v5
		C-491-721.1-486.5-716.6-481-716.6"/>
	<path d="M-631-1176.6c-1.3,6.7-2.9,8.4-5.3,12c-2.1,3.1-5.1,5.6-8,8c-2.9,2.5-6.2,4.4-9.3,6.7c-3.6,2.6-7.8,4.6-10.7,8
		c-3.2,3.8-6.7,8.4-6.7,13.3c0,4,2.4,8,5.3,10.7c3.5,3.2,8.5,5.4,13.3,5.3c5.4-0.1,10.8-2.9,14.7-6.7c2.9-2.8,5.3-10.7,5.3-10.7v2.7
		c0,1.3-0.1,7.3-1.3,10.7c-1.4,4-3.8,7.6-6.7,10.7c-3,3.3-10.7,8-10.7,8v1.3c0,0,10.6-2.2,16-2.7c2.7-0.2,5.3-0.2,8,0
		c5.4,0.4,16,2.7,16,2.7v-1.3c0,0-7.7-4.7-10.7-8c-2.8-3.1-5.3-6.7-6.7-10.7c-1.2-3.4-1.3-10.7-1.3-10.7v-2.7c0,0,2.5,7.9,5.3,10.7
		c3.9,3.7,9.3,6.5,14.7,6.7c4.8,0.1,9.8-2.1,13.3-5.3c2.9-2.7,5.3-6.7,5.3-10.7c0-5-3.5-9.5-6.7-13.3c-2.8-3.4-7.1-5.4-10.7-8
		c-3.1-2.3-6.4-4.2-9.3-6.7c-2.9-2.4-5.9-4.9-8-8C-628.1-1168.2-629.7-1170-631-1176.6"/>
	<path d="M-631-996.6c-1.3,6.7-2.9,8.4-5.3,12c-2.1,3.1-5.1,5.6-8,8c-2.9,2.5-6.2,4.4-9.3,6.7c-3.6,2.6-7.8,4.6-10.7,8
		c-3.2,3.8-6.7,8.4-6.7,13.3c0,4,2.4,8,5.3,10.7c3.5,3.2,8.5,5.4,13.3,5.3c5.4-0.1,10.8-2.9,14.7-6.7c2.9-2.8,5.3-10.7,5.3-10.7v2.7
		c0,1.3-0.1,7.3-1.3,10.7c-1.4,4-3.8,7.6-6.7,10.7c-3,3.3-10.7,8-10.7,8v1.3c0,0,10.6-2.2,16-2.7c2.7-0.2,5.3-0.2,8,0
		c5.4,0.4,16,2.7,16,2.7v-1.3c0,0-7.7-4.7-10.7-8c-2.8-3.1-5.3-6.7-6.7-10.7c-1.2-3.4-1.3-10.7-1.3-10.7v-2.7c0,0,2.5,7.9,5.3,10.7
		c3.9,3.7,9.3,6.5,14.7,6.7c4.8,0.1,9.8-2.1,13.3-5.3c2.9-2.7,5.3-6.7,5.3-10.7c0-5-3.5-9.5-6.7-13.3c-2.8-3.4-7.1-5.4-10.7-8
		c-3.1-2.3-6.4-4.2-9.3-6.7c-2.9-2.4-5.9-4.9-8-8C-628.1-988.2-629.7-990-631-996.6"/>
	<path d="M-631-736.6c-1.3-6.7-2.9-8.4-5.3-12c-2.1-3.1-5.1-5.6-8-8c-2.9-2.5-6.2-4.4-9.3-6.7c-3.6-2.6-7.8-4.6-10.7-8
		c-3.2-3.8-6.7-8.4-6.7-13.3c0-4,2.4-8,5.3-10.7c3.5-3.2,8.5-5.4,13.3-5.3c5.4,0.1,10.8,2.9,14.7,6.7c2.9,2.8,5.3,10.7,5.3,10.7
		v-2.7c0-1.3-0.1-7.3-1.3-10.7c-1.4-4-3.8-7.6-6.7-10.7c-3-3.3-10.7-8-10.7-8v-1.3c0,0,10.6,2.2,16,2.7c2.7,0.2,5.3,0.2,8,0
		c5.4-0.4,16-2.7,16-2.7v1.3c0,0-7.7,4.7-10.7,8c-2.8,3.1-5.3,6.7-6.7,10.7c-1.2,3.4-1.3,10.7-1.3,10.7v2.7c0,0,2.5-7.9,5.3-10.7
		c3.9-3.7,9.3-6.5,14.7-6.7c4.8-0.1,9.8,2.1,13.3,5.3c2.9,2.7,5.3,6.7,5.3,10.7c0,5-3.5,9.5-6.7,13.3c-2.8,3.4-7.1,5.4-10.7,8
		c-3.1,2.3-6.4,4.2-9.3,6.7c-2.9,2.4-5.9,4.9-8,8C-628.1-745-629.7-743.3-631-736.6"/>
	<path d="M-781-1136.6c-0.5,2.5-1.1,3.1-2,4.5c-0.8,1.2-1.9,2.1-3,3c-1.1,0.9-2.3,1.7-3.5,2.5c-1.3,1-2.9,1.7-4,3
		c-1.2,1.4-2.5,3.1-2.5,5c0,1.5,0.9,3,2,4c1.3,1.2,3.2,2,5,2c2,0,4-1.1,5.5-2.5c1.1-1,2-4,2-4v1c0,0.5,0,2.7-0.5,4
		c-0.5,1.5-1.4,2.8-2.5,4c-1.1,1.2-4,3-4,3v0.5c0,0,4-0.8,6-1c1-0.1,2-0.1,3,0c2,0.2,6,1,6,1v-0.5c0,0-2.9-1.8-4-3
		c-1.1-1.2-2-2.5-2.5-4c-0.5-1.3-0.5-4-0.5-4v-1c0,0,0.9,3,2,4c1.5,1.4,3.5,2.5,5.5,2.5c1.8,0,3.7-0.8,5-2c1.1-1,2-2.5,2-4
		c0-1.9-1.3-3.6-2.5-5c-1.1-1.3-2.7-2-4-3c-1.2-0.8-2.4-1.6-3.5-2.5c-1.1-0.9-2.2-1.8-3-3C-779.9-1133.5-780.5-1134.1-781-1136.6"/>
	<path d="M-481-776.6c-0.5-2.5-1.1-3.1-2-4.5c-0.8-1.2-1.9-2.1-3-3c-1.1-0.9-2.3-1.7-3.5-2.5c-1.3-1-2.9-1.7-4-3
		c-1.2-1.4-2.5-3.1-2.5-5c0-1.5,0.9-3,2-4c1.3-1.2,3.2-2,5-2c2,0,4,1.1,5.5,2.5c1.1,1,2,4,2,4v-1c0-0.5,0-2.7-0.5-4
		c-0.5-1.5-1.4-2.8-2.5-4c-1.1-1.2-4-3-4-3v-0.5c0,0,4,0.8,6,1c1,0.1,2,0.1,3,0c2-0.2,6-1,6-1v0.5c0,0-2.9,1.8-4,3
		c-1.1,1.2-2,2.5-2.5,4c-0.5,1.3-0.5,4-0.5,4v1c0,0,0.9-3,2-4c1.5-1.4,3.5-2.5,5.5-2.5c1.8,0,3.7,0.8,5,2c1.1,1,2,2.5,2,4
		c0,1.9-1.3,3.6-2.5,5c-1.1,1.3-2.7,2-4,3c-1.2,0.8-2.4,1.6-3.5,2.5c-1.1,0.9-2.2,1.8-3,3C-479.9-779.8-480.5-779.1-481-776.6"/>
</g>
<g transform="translate(0 1827.6)" class="st0">
	<path class="st1" d="M29.4-1826.1h299.1c16.5,0,29.9,13.4,29.9,29.9v479.1c0,16.5-13.4,29.9-29.9,29.9H29.4
		c-16.5,0-29.9-13.4-29.9-29.9v-479.1C-0.5-1812.7,12.9-1826.1,29.4-1826.1z"/>
	<path class="st2" d="M29-1796.6c-5.5,0-10,4.5-10,10v5h5v-5c0-2.8,2.2-5,5-5s5,2.2,5,5v5c0,2.8-2.2,5-5,5h-5v5h5c2.8,0,5,2.2,5,5
		v10c0,2.8-2.2,5-5,5s-5-2.2-5-5v-5h-5v5c0,5.5,4.5,10,10,10s10-4.5,10-10v-10c0-3-1.3-5.7-3.4-7.5c2.1-1.8,3.4-4.5,3.4-7.5v-5
		C39-1792.2,34.5-1796.6,29-1796.6"/>
	<path class="st2" d="M329-1316.6c5.5,0,10-4.5,10-10v-5h-5v5c0,2.8-2.2,5-5,5s-5-2.2-5-5v-5c0-2.8,2.2-5,5-5h5v-5h-5
		c-2.8,0-5-2.2-5-5v-10c0-2.8,2.2-5,5-5s5,2.2,5,5v5h5v-5c0-5.5-4.5-10-10-10s-10,4.5-10,10v10c0,3,1.3,5.7,3.4,7.5
		c-2.1,1.8-3.4,4.5-3.4,7.5v5C319-1321.1,323.5-1316.6,329-1316.6"/>
	<path class="st2" d="M179-1776.6c-4-0.1-6.7,1.3-9.3,4c-2.7,2.7-4,5.3-4,9.3s1.5,6.4,4,9.3c2.4,2.8,4,4,5.3,6.7
		c1.3,2.7,2.7,8,2.7,10.7v4H175c-2.7,0-8-2.7-9.3-4l-4-4c-2.7-2.7-5.3-4-9.3-4s-6.7,1.3-9.3,4c-2.7,2.7-4,5.3-4,9.3s1.3,6.7,4,9.3
		s5.3,4,9.3,4s6.7-1.3,9.3-4l4-4c1.3-1.3,6.7-4,9.3-4h2.7c-0.1,3.8-0.3,10.4-1.3,13.3c-1.3,4-4,8-6.7,10.7c-2.7,2.7-10.7,8-10.7,8
		v1.3c0,0,13.3-2.7,16-2.7h8c2.7,0,16,2.7,16,2.7v-1.3c0,0-8-5.3-10.7-8s-5.3-6.7-6.7-10.7c-1-3-1.3-9.6-1.3-13.3h2.7
		c2.7,0,8,2.7,9.3,4l4,4c2.7,2.7,5.3,4,9.3,4s6.7-1.3,9.3-4c2.7-2.7,4-5.3,4-9.3s-1.3-6.7-4-9.3s-5.3-4-9.3-4s-6.7,1.3-9.3,4l-4,4
		c-1.3,1.3-6.7,4-9.3,4h-2.7v-4c0-2.7,1.3-8,2.7-10.7c1.3-2.7,2.7-4,5.3-6.7c2.7-2.7,4-5.3,4-9.3s-1.3-6.7-4-9.3
		S183-1776.6,179-1776.6"/>
	<path class="st2" d="M179-1596.6c-4-0.1-6.7,1.3-9.3,4c-2.7,2.7-4,5.3-4,9.3s1.5,6.4,4,9.3c2.4,2.8,4,4,5.3,6.7
		c1.3,2.7,2.7,8,2.7,10.7v4H175c-2.7,0-8-2.7-9.3-4l-4-4c-2.7-2.7-5.3-4-9.3-4s-6.7,1.3-9.3,4c-2.7,2.7-4,5.3-4,9.3s1.3,6.7,4,9.3
		c2.7,2.7,5.3,4,9.3,4s6.7-1.3,9.3-4l4-4c1.3-1.3,6.7-4,9.3-4h2.7c-0.1,3.8-0.3,10.4-1.3,13.3c-1.3,4-4,8-6.7,10.7
		c-2.7,2.7-10.7,8-10.7,8v1.3c0,0,13.3-2.7,16-2.7h8c2.7,0,16,2.7,16,2.7v-1.3c0,0-8-5.3-10.7-8s-5.3-6.7-6.7-10.7
		c-1-3-1.3-9.6-1.3-13.3h2.7c2.7,0,8,2.7,9.3,4l4,4c2.7,2.7,5.3,4,9.3,4s6.7-1.3,9.3-4c2.7-2.7,4-5.3,4-9.3s-1.3-6.7-4-9.3
		c-2.7-2.7-5.3-4-9.3-4s-6.7,1.3-9.3,4l-4,4c-1.3,1.3-6.7,4-9.3,4h-2.7v-4c0-2.7,1.3-8,2.7-10.7c1.3-2.7,2.7-4,5.3-6.7
		c2.7-2.7,4-5.3,4-9.3s-1.3-6.7-4-9.3C185.7-1595.3,183-1596.6,179-1596.6"/>
	<path class="st2" d="M179-1336.6c4,0.1,6.7-1.3,9.3-4c2.7-2.7,4-5.3,4-9.3s-1.5-6.4-4-9.3c-2.4-2.8-4-4-5.3-6.7
		c-1.3-2.7-2.7-8-2.7-10.7v-4h2.7c2.7,0,8,2.7,9.3,4l4,4c2.7,2.7,5.3,4,9.3,4s6.7-1.3,9.3-4c2.7-2.7,4-5.3,4-9.3s-1.3-6.7-4-9.3
		s-5.3-4-9.3-4s-6.7,1.3-9.3,4l-4,4c-1.3,1.3-6.7,4-9.3,4h-2.7c0.1-3.8,0.3-10.4,1.3-13.3c1.3-4,4-8,6.7-10.7c2.7-2.7,10.7-8,10.7-8
		v-1.3c0,0-13.3,2.7-16,2.7h-8c-2.7,0-16-2.7-16-2.7v1.3c0,0,8,5.3,10.7,8c2.7,2.7,5.3,6.7,6.7,10.7c1,3,1.3,9.6,1.3,13.3H175
		c-2.7,0-8-2.7-9.3-4l-4-4c-2.7-2.7-5.3-4-9.3-4s-6.7,1.3-9.3,4c-2.7,2.7-4,5.3-4,9.3s1.3,6.7,4,9.3s5.3,4,9.3,4s6.7-1.3,9.3-4l4-4
		c1.3-1.3,6.7-4,9.3-4h2.7v4c0,2.7-1.3,8-2.7,10.7c-1.3,2.7-2.7,4-5.3,6.7c-2.7,2.7-4,5.3-4,9.3s1.3,6.7,4,9.3
		S175-1336.6,179-1336.6"/>
	<path class="st2" d="M29-1736.6c-1.5,0-2.5,0.5-3.5,1.5s-1.5,2-1.5,3.5s0.6,2.4,1.5,3.5c0.9,1.1,1.5,1.5,2,2.5s1,3,1,4v1.5h-1
		c-1,0-3-1-3.5-1.5l-1.5-1.5c-1-1-2-1.5-3.5-1.5s-2.5,0.5-3.5,1.5s-1.5,2-1.5,3.5s0.5,2.5,1.5,3.5s2,1.5,3.5,1.5s2.5-0.5,3.5-1.5
		l1.5-1.5c0.5-0.5,2.5-1.5,3.5-1.5h1c0,1.4-0.1,3.9-0.5,5c-0.5,1.5-1.5,3-2.5,4s-4,3-4,3v0.5c0,0,5-1,6-1h3c1,0,6,1,6,1v-0.5
		c0,0-3-2-4-3s-2-2.5-2.5-4c-0.4-1.1-0.5-3.6-0.5-5h1c1,0,3,1,3.5,1.5l1.5,1.5c1,1,2,1.5,3.5,1.5s2.5-0.5,3.5-1.5s1.5-2,1.5-3.5
		s-0.5-2.5-1.5-3.5s-2-1.5-3.5-1.5s-2.5,0.5-3.5,1.5l-1.5,1.5c-0.5,0.5-2.5,1.5-3.5,1.5h-1v-1.5c0-1,0.5-3,1-4s1-1.5,2-2.5
		c1-1,1.5-2,1.5-3.5s-0.5-2.5-1.5-3.5S30.5-1736.6,29-1736.6"/>
	<path class="st2" d="M329-1376.6c1.5,0,2.5-0.5,3.5-1.5s1.5-2,1.5-3.5s-0.6-2.4-1.5-3.5c-0.9-1.1-1.5-1.5-2-2.5s-1-3-1-4v-1.5h1
		c1,0,3,1,3.5,1.5l1.5,1.5c1,1,2,1.5,3.5,1.5s2.5-0.5,3.5-1.5s1.5-2,1.5-3.5s-0.5-2.5-1.5-3.5s-2-1.5-3.5-1.5s-2.5,0.5-3.5,1.5
		l-1.5,1.5c-0.5,0.5-2.5,1.5-3.5,1.5h-1c0-1.4,0.1-3.9,0.5-5c0.5-1.5,1.5-3,2.5-4s4-3,4-3v-0.5c0,0-5,1-6,1h-3c-1,0-6-1-6-1v0.5
		c0,0,3,2,4,3s2,2.5,2.5,4c0.4,1.1,0.5,3.6,0.5,5h-1c-1,0-3-1-3.5-1.5l-1.5-1.5c-1-1-2-1.5-3.5-1.5s-2.5,0.5-3.5,1.5s-1.5,2-1.5,3.5
		s0.5,2.5,1.5,3.5s2,1.5,3.5,1.5s2.5-0.5,3.5-1.5l1.5-1.5c0.5-0.5,2.5-1.5,3.5-1.5h1v1.5c0,1-0.5,3-1,4s-1,1.5-2,2.5
		c-1,1-1.5,2-1.5,3.5s0.5,2.5,1.5,3.5S327.5-1376.6,329-1376.6"/>
</g>
<g transform="translate(1200 1227.6)">
	<path class="st3" d="M-1170.6-1226.1h299.1c16.5,0,29.9,13.4,29.9,29.9v479.1c0,16.5-13.4,29.9-29.9,29.9h-299.1
		c-16.5,0-29.9-13.4-29.9-29.9v-479.1C-1200.5-1212.7-1187.1-1226.1-1170.6-1226.1z"/>
	<path d="M-1171-1196.6l-10,35v5h12v10h5v-10h3v-5h-3v-15h-5v15h-6.8l10-35H-1171z"/>
	<path d="M-871-716.6l10-35v-5h-12v-10h-5v10h-3v5h3v15h5v-15h6.8l-10,35H-871z"/>
	<path d="M-1171-1136.6c-0.5,2.5-1.1,3.1-2,4.5c-0.8,1.2-1.9,2.1-3,3c-1.1,0.9-2.3,1.7-3.5,2.5c-1.3,1-2.9,1.7-4,3
		c-1.2,1.4-2.5,3.1-2.5,5c0,1.5,0.9,3,2,4c1.3,1.2,3.2,2,5,2c2,0,4.1-1.1,5.5-2.5c1.1-1,2-4,2-4v1c0,0.5-0.1,2.7-0.5,4
		c-0.5,1.5-1.4,2.8-2.5,4c-1.1,1.2-4,3-4,3v0.5c0,0,4-0.8,6-1c1-0.1,2-0.1,3,0c2,0.2,6,1,6,1v-0.5c0,0-2.9-1.8-4-3
		c-1.1-1.2-2-2.5-2.5-4c-0.4-1.3-0.5-4-0.5-4v-1c0,0,0.9,3,2,4c1.4,1.4,3.5,2.5,5.5,2.5c1.8,0,3.7-0.8,5-2c1.1-1,2-2.5,2-4
		c0-1.9-1.3-3.6-2.5-5c-1.1-1.3-2.7-2-4-3c-1.2-0.8-2.4-1.6-3.5-2.5c-1.1-0.9-2.2-1.8-3-3C-1169.9-1133.5-1170.5-1134.1-1171-1136.6
		"/>
	<path d="M-871-776.6c-0.5-2.5-1.1-3.1-2-4.5c-0.8-1.2-1.9-2.1-3-3c-1.1-0.9-2.3-1.7-3.5-2.5c-1.3-1-2.9-1.7-4-3
		c-1.2-1.4-2.5-3.1-2.5-5c0-1.5,0.9-3,2-4c1.3-1.2,3.2-2,5-2c2,0,4,1.1,5.5,2.5c1.1,1,2,4,2,4v-1c0-0.5,0-2.7-0.5-4
		c-0.5-1.5-1.4-2.8-2.5-4c-1.1-1.2-4-3-4-3v-0.5c0,0,4,0.8,6,1c1,0.1,2,0.1,3,0c2-0.2,6-1,6-1v0.5c0,0-2.9,1.8-4,3
		c-1.1,1.2-2,2.5-2.5,4c-0.5,1.3-0.5,4-0.5,4v1c0,0,0.9-3,2-4c1.5-1.4,3.5-2.5,5.5-2.5c1.8,0,3.7,0.8,5,2c1.1,1,2,2.5,2,4
		c0,1.9-1.3,3.6-2.5,5c-1.1,1.3-2.7,2-4,3c-1.2,0.8-2.4,1.6-3.5,2.5c-1.1,0.9-2.2,1.8-3,3C-869.9-779.8-870.5-779.1-871-776.6"/>
	<path d="M-941-1176.6c-1.3,6.7-2.9,8.4-5.3,12c-2.1,3.1-5.1,5.6-8,8c-2.9,2.5-6.2,4.4-9.3,6.7c-3.6,2.6-7.8,4.6-10.7,8
		c-3.2,3.8-6.7,8.4-6.7,13.3c0,4,2.4,8,5.3,10.7c3.5,3.2,8.5,5.4,13.3,5.3c5.4-0.1,10.8-2.9,14.7-6.7c2.9-2.8,5.3-10.7,5.3-10.7v2.7
		c0,1.3-0.1,7.3-1.3,10.7c-1.4,4-3.8,7.6-6.7,10.7c-3,3.3-10.7,8-10.7,8v1.3c0,0,10.6-2.2,16-2.7c2.7-0.2,5.3-0.2,8,0
		c5.4,0.4,16,2.7,16,2.7v-1.3c0,0-7.7-4.7-10.7-8c-2.8-3.1-5.3-6.7-6.7-10.7c-1.2-3.4-1.3-10.7-1.3-10.7v-2.7c0,0,2.5,7.9,5.3,10.7
		c3.9,3.7,9.3,6.5,14.7,6.7c4.8,0.1,9.8-2.1,13.3-5.3c2.9-2.7,5.3-6.7,5.3-10.7c0-5-3.5-9.5-6.7-13.3c-2.8-3.4-7.1-5.4-10.7-8
		c-3.1-2.3-6.4-4.2-9.3-6.7c-2.9-2.4-5.9-4.9-8-8C-938.1-1168.2-939.7-1170-941-1176.6"/>
	<path d="M-1101-1176.6c-1.3,6.7-2.9,8.4-5.3,12c-2.1,3.1-5.1,5.6-8,8c-2.9,2.5-6.2,4.4-9.3,6.7c-3.6,2.6-7.8,4.6-10.7,8
		c-3.2,3.8-6.7,8.4-6.7,13.3c0,4,2.4,8,5.3,10.7c3.5,3.2,8.5,5.4,13.3,5.3c5.4-0.1,10.8-2.9,14.7-6.7c2.9-2.8,5.3-10.7,5.3-10.7v2.7
		c0,1.3-0.1,7.3-1.3,10.7c-1.4,4-3.8,7.6-6.7,10.7c-3,3.3-10.7,8-10.7,8v1.3c0,0,10.6-2.2,16-2.7c2.7-0.2,5.3-0.2,8,0
		c5.4,0.4,16,2.7,16,2.7v-1.3c0,0-7.7-4.7-10.7-8c-2.8-3.1-5.3-6.7-6.7-10.7c-1.2-3.4-1.3-10.7-1.3-10.7v-2.7c0,0,2.5,7.9,5.3,10.7
		c3.9,3.7,9.3,6.5,14.7,6.7c4.8,0.1,9.8-2.1,13.3-5.3c2.9-2.7,5.3-6.7,5.3-10.7c0-5-3.5-9.5-6.7-13.3c-2.8-3.4-7.1-5.4-10.7-8
		c-3.1-2.3-6.4-4.2-9.3-6.7c-2.9-2.4-5.9-4.9-8-8C-1098.1-1168.2-1099.7-1170-1101-1176.6"/>
	<path d="M-1101-736.6c-1.3-6.7-2.9-8.4-5.3-12c-2.1-3.1-5.1-5.6-8-8c-2.9-2.5-6.2-4.4-9.3-6.7c-3.6-2.6-7.8-4.6-10.7-8
		c-3.2-3.8-6.7-8.4-6.7-13.4c0-4,2.4-8,5.3-10.7c3.5-3.2,8.5-5.4,13.3-5.3c5.4,0.1,10.8,2.9,14.7,6.7c2.9,2.8,5.3,10.7,5.3,10.7
		v-2.7c0-1.3-0.1-7.3-1.3-10.7c-1.4-4-3.8-7.6-6.7-10.7c-3-3.3-10.7-8-10.7-8v-1.3c0,0,10.6,2.2,16,2.7c2.7,0.2,5.3,0.2,8,0
		c5.4-0.4,16-2.7,16-2.7v1.3c0,0-7.7,4.7-10.7,8c-2.8,3.1-5.3,6.7-6.7,10.7c-1.2,3.4-1.3,10.7-1.3,10.7v2.7c0,0,2.5-7.9,5.3-10.7
		c3.9-3.7,9.3-6.5,14.7-6.7c4.8-0.1,9.8,2.1,13.3,5.3c2.9,2.7,5.3,6.7,5.3,10.7c0,5-3.5,9.5-6.7,13.3c-2.8,3.4-7.1,5.4-10.7,8
		c-3.1,2.3-6.4,4.2-9.3,6.7c-2.9,2.4-5.9,4.9-8,8C-1098.1-745-1099.7-743.3-1101-736.6"/>
	<path d="M-941-736.6c-1.3-6.7-2.9-8.4-5.3-12c-2.1-3.1-5.1-5.6-8-8c-2.9-2.5-6.2-4.4-9.3-6.7c-3.6-2.6-7.8-4.6-10.7-8
		c-3.2-3.8-6.7-8.4-6.7-13.3c0-4,2.4-8,5.3-10.7c3.5-3.2,8.5-5.4,13.3-5.3c5.4,0.1,10.8,2.9,14.7,6.7c2.9,2.8,5.3,10.7,5.3,10.7
		v-2.7c0-1.3-0.1-7.3-1.3-10.7c-1.4-4-3.8-7.6-6.7-10.7c-3-3.3-10.7-8-10.7-8v-1.3c0,0,10.6,2.2,16,2.7c2.7,0.2,5.3,0.2,8,0
		c5.4-0.4,16-2.7,16-2.7v1.3c0,0-7.7,4.7-10.7,8c-2.8,3.1-5.3,6.7-6.7,10.7c-1.2,3.4-1.3,10.7-1.3,10.7v2.7c0,0,2.5-7.9,5.3-10.7
		c3.9-3.7,9.3-6.5,14.7-6.7c4.8-0.1,9.8,2.1,13.3,5.3c2.9,2.7,5.3,6.7,5.3,10.7c0,5-3.5,9.5-6.7,13.3c-2.8,3.4-7.1,5.4-10.7,8
		c-3.1,2.3-6.4,4.2-9.3,6.7c-2.9,2.4-5.9,4.9-8,8C-938.1-745-939.7-743.3-941-736.6"/>
</g>
</svg>
